<mxfile host="app.diagrams.net" agent="Mozilla/5.0 (Windows NT 10.0; Win64; x64; rv:143.0) Gecko/20100101 Firefox/143.0" version="28.2.5">
  <diagram name="Seite-1" id="7fxeA0YXGlUupDFOq8OQ">
    <mxGraphModel dx="1188" dy="626" grid="1" gridSize="10" guides="1" tooltips="1" connect="1" arrows="1" fold="1" page="1" pageScale="1" pageWidth="827" pageHeight="1169" math="0" shadow="0">
      <root>
        <mxCell id="0" />
        <mxCell id="1" parent="0" />
        <mxCell id="9WO_Qg4BbEpiKnftaOP9-3" value="&amp;lt;interface&amp;gt;&lt;div&gt;Immobilie&lt;/div&gt;" style="swimlane;fontStyle=0;childLayout=stackLayout;horizontal=1;startSize=30;horizontalStack=0;resizeParent=1;resizeParentMax=0;resizeLast=0;collapsible=1;marginBottom=0;whiteSpace=wrap;html=1;" vertex="1" parent="1">
          <mxGeometry x="140" y="140" width="140" height="90" as="geometry" />
        </mxCell>
        <mxCell id="9WO_Qg4BbEpiKnftaOP9-4" value="- adresse&lt;span style=&quot;white-space: pre;&quot;&gt;&#x9;&lt;/span&gt;" style="text;strokeColor=none;fillColor=none;align=left;verticalAlign=middle;spacingLeft=4;spacingRight=4;overflow=hidden;points=[[0,0.5],[1,0.5]];portConstraint=eastwest;rotatable=0;whiteSpace=wrap;html=1;" vertex="1" parent="9WO_Qg4BbEpiKnftaOP9-3">
          <mxGeometry y="30" width="140" height="30" as="geometry" />
        </mxCell>
        <mxCell id="9WO_Qg4BbEpiKnftaOP9-5" value="- flÃ¤che" style="text;strokeColor=none;fillColor=none;align=left;verticalAlign=middle;spacingLeft=4;spacingRight=4;overflow=hidden;points=[[0,0.5],[1,0.5]];portConstraint=eastwest;rotatable=0;whiteSpace=wrap;html=1;" vertex="1" parent="9WO_Qg4BbEpiKnftaOP9-3">
          <mxGeometry y="60" width="140" height="30" as="geometry" />
        </mxCell>
        <mxCell id="9WO_Qg4BbEpiKnftaOP9-9" value="&lt;div&gt;Wohnung&lt;/div&gt;" style="swimlane;fontStyle=0;childLayout=stackLayout;horizontal=1;startSize=30;horizontalStack=0;resizeParent=1;resizeParentMax=0;resizeLast=0;collapsible=1;marginBottom=0;whiteSpace=wrap;html=1;" vertex="1" parent="1">
          <mxGeometry x="70" y="300" width="140" height="60" as="geometry" />
        </mxCell>
        <mxCell id="9WO_Qg4BbEpiKnftaOP9-13" value="&lt;div&gt;Haus&lt;/div&gt;" style="swimlane;fontStyle=0;childLayout=stackLayout;horizontal=1;startSize=30;horizontalStack=0;resizeParent=1;resizeParentMax=0;resizeLast=0;collapsible=1;marginBottom=0;whiteSpace=wrap;html=1;" vertex="1" parent="1">
          <mxGeometry x="260" y="300" width="140" height="60" as="geometry" />
        </mxCell>
        <mxCell id="9WO_Qg4BbEpiKnftaOP9-18" style="edgeStyle=orthogonalEdgeStyle;rounded=0;orthogonalLoop=1;jettySize=auto;html=1;entryX=0.49;entryY=0.967;entryDx=0;entryDy=0;entryPerimeter=0;endArrow=block;endFill=0;" edge="1" parent="1" source="9WO_Qg4BbEpiKnftaOP9-9" target="9WO_Qg4BbEpiKnftaOP9-5">
          <mxGeometry relative="1" as="geometry" />
        </mxCell>
        <mxCell id="9WO_Qg4BbEpiKnftaOP9-20" style="edgeStyle=orthogonalEdgeStyle;rounded=0;orthogonalLoop=1;jettySize=auto;html=1;entryX=0.502;entryY=0.994;entryDx=0;entryDy=0;entryPerimeter=0;endArrow=block;endFill=0;" edge="1" parent="1" source="9WO_Qg4BbEpiKnftaOP9-13" target="9WO_Qg4BbEpiKnftaOP9-5">
          <mxGeometry relative="1" as="geometry" />
        </mxCell>
        <mxCell id="9WO_Qg4BbEpiKnftaOP9-21" value="&lt;div&gt;&amp;lt;interface&amp;gt;&amp;nbsp;&lt;/div&gt;&lt;div&gt;Kunde&lt;/div&gt;" style="swimlane;fontStyle=0;childLayout=stackLayout;horizontal=1;startSize=30;horizontalStack=0;resizeParent=1;resizeParentMax=0;resizeLast=0;collapsible=1;marginBottom=0;whiteSpace=wrap;html=1;" vertex="1" parent="1">
          <mxGeometry x="580" y="140" width="140" height="60" as="geometry" />
        </mxCell>
        <mxCell id="9WO_Qg4BbEpiKnftaOP9-22" value="Name&lt;span style=&quot;white-space: pre;&quot;&gt;&#x9;&lt;/span&gt;" style="text;strokeColor=none;fillColor=none;align=left;verticalAlign=middle;spacingLeft=4;spacingRight=4;overflow=hidden;points=[[0,0.5],[1,0.5]];portConstraint=eastwest;rotatable=0;whiteSpace=wrap;html=1;" vertex="1" parent="9WO_Qg4BbEpiKnftaOP9-21">
          <mxGeometry y="30" width="140" height="30" as="geometry" />
        </mxCell>
        <mxCell id="9WO_Qg4BbEpiKnftaOP9-25" value="Firma" style="swimlane;fontStyle=0;childLayout=stackLayout;horizontal=1;startSize=30;horizontalStack=0;resizeParent=1;resizeParentMax=0;resizeLast=0;collapsible=1;marginBottom=0;whiteSpace=wrap;html=1;" vertex="1" parent="1">
          <mxGeometry x="460" y="240" width="140" height="60" as="geometry" />
        </mxCell>
        <mxCell id="9WO_Qg4BbEpiKnftaOP9-26" value="Standort" style="text;strokeColor=none;fillColor=none;align=left;verticalAlign=middle;spacingLeft=4;spacingRight=4;overflow=hidden;points=[[0,0.5],[1,0.5]];portConstraint=eastwest;rotatable=0;whiteSpace=wrap;html=1;" vertex="1" parent="9WO_Qg4BbEpiKnftaOP9-25">
          <mxGeometry y="30" width="140" height="30" as="geometry" />
        </mxCell>
        <mxCell id="9WO_Qg4BbEpiKnftaOP9-29" value="Privatperson" style="swimlane;fontStyle=0;childLayout=stackLayout;horizontal=1;startSize=30;horizontalStack=0;resizeParent=1;resizeParentMax=0;resizeLast=0;collapsible=1;marginBottom=0;whiteSpace=wrap;html=1;" vertex="1" parent="1">
          <mxGeometry x="650" y="240" width="140" height="60" as="geometry" />
        </mxCell>
        <mxCell id="9WO_Qg4BbEpiKnftaOP9-30" value="Alter" style="text;strokeColor=none;fillColor=none;align=left;verticalAlign=middle;spacingLeft=4;spacingRight=4;overflow=hidden;points=[[0,0.5],[1,0.5]];portConstraint=eastwest;rotatable=0;whiteSpace=wrap;html=1;" vertex="1" parent="9WO_Qg4BbEpiKnftaOP9-29">
          <mxGeometry y="30" width="140" height="30" as="geometry" />
        </mxCell>
        <mxCell id="9WO_Qg4BbEpiKnftaOP9-33" style="edgeStyle=orthogonalEdgeStyle;rounded=0;orthogonalLoop=1;jettySize=auto;html=1;entryX=0.5;entryY=1;entryDx=0;entryDy=0;entryPerimeter=0;endArrow=block;endFill=0;" edge="1" parent="1" source="9WO_Qg4BbEpiKnftaOP9-25" target="9WO_Qg4BbEpiKnftaOP9-22">
          <mxGeometry relative="1" as="geometry" />
        </mxCell>
        <mxCell id="9WO_Qg4BbEpiKnftaOP9-34" style="edgeStyle=orthogonalEdgeStyle;rounded=0;orthogonalLoop=1;jettySize=auto;html=1;entryX=0.508;entryY=0.967;entryDx=0;entryDy=0;entryPerimeter=0;endArrow=block;endFill=0;" edge="1" parent="1" source="9WO_Qg4BbEpiKnftaOP9-29" target="9WO_Qg4BbEpiKnftaOP9-22">
          <mxGeometry relative="1" as="geometry" />
        </mxCell>
        <mxCell id="9WO_Qg4BbEpiKnftaOP9-35" style="edgeStyle=orthogonalEdgeStyle;rounded=0;orthogonalLoop=1;jettySize=auto;html=1;entryX=0;entryY=0.5;entryDx=0;entryDy=0;endArrow=open;endFill=0;startArrow=open;startFill=0;" edge="1" parent="1" source="9WO_Qg4BbEpiKnftaOP9-4" target="9WO_Qg4BbEpiKnftaOP9-22">
          <mxGeometry relative="1" as="geometry" />
        </mxCell>
        <mxCell id="9WO_Qg4BbEpiKnftaOP9-36" value="1 ...*" style="text;html=1;align=center;verticalAlign=middle;resizable=0;points=[];autosize=1;strokeColor=none;fillColor=none;" vertex="1" parent="1">
          <mxGeometry x="280" y="155" width="50" height="30" as="geometry" />
        </mxCell>
        <mxCell id="9WO_Qg4BbEpiKnftaOP9-37" value="&lt;div&gt;1 ... *&lt;/div&gt;" style="text;html=1;align=center;verticalAlign=middle;resizable=0;points=[];autosize=1;strokeColor=none;fillColor=none;" vertex="1" parent="1">
          <mxGeometry x="525" y="148" width="50" height="30" as="geometry" />
        </mxCell>
      </root>
    </mxGraphModel>
  </diagram>
</mxfile>
